<svg xmlns="http://www.w3.org/2000/svg" width="739.444" height="102.748" viewBox="0 0 739.444 102.748"><path fill="#ee2a7b" d="M594.883 11.27h-25.777l-58.73 89.35h25.78"/><path d="M634.258 52.068v-33.84a7.144 7.144 0 0 0-7.114-7.116H622.3a7.153 7.153 0 0 0-3.886 1.136 7.008 7.008 0 0 0-3.886-1.136h-4.903a7.038 7.038 0 0 0-6.99 7.116v33.84h6.4v-33.42c0-.78.42-1.138 1.196-1.138H614c.837 0 1.255.36 1.255 1.137v33.42h6.398v-33.42c-.002-.778.42-1.137 1.194-1.137h3.766c.836 0 1.254.36 1.254 1.137v33.42h6.394zm29.182 0v-33.84a6.694 6.694 0 0 0-2.153-5.023 6.815 6.815 0 0 0-4.96-2.093h-8.49a7.047 7.047 0 0 0-7.004 7.116v33.84h6.398V37.24h9.75v14.83h6.47zm-16.203-21.225V18.648c0-.72.42-1.078 1.196-1.078h7.292q1.255 0 1.255 1.078v12.197h-9.748zm45.146 21.225V37.42c0-1.734-2.99-5.02-8.91-9.806l-.657-.478 9.268-13.453.12-2.51h-5.975L676.18 25.76V11.173h-6.395V52.07h6.397V36.163l2.63-3.705.718.594c4.243 3.47 6.395 5.502 6.395 6.16v12.853h6.454zm30.197-3.228c0-1.615-.897-3.23-2.333-3.23h-15.424V33.714h12.734v-6.396h-12.734v-9.75h16.204v-6.454h-22.6V52.07h21.82c1.434 0 2.333-1.615 2.333-3.23zm-98.127 44.93h-15.425v-11.9h12.733v-6.395h-12.73v-9.75h16.21V59.27h-22.6v40.956h21.826c1.433 0 2.33-1.615 2.33-3.228 0-1.615-.896-3.23-2.33-3.23zm51.964-1.076q0 1.075-1.255 1.075h-7.295c-.776 0-1.195-.36-1.195-1.08V59.27h-6.397v33.84a6.92 6.92 0 0 0 2.03 5.08 6.752 6.752 0 0 0 4.96 2.035h8.487a7.147 7.147 0 0 0 7.117-7.114V59.27h-6.46v33.423zm28.286-33.424h-8.49a7.044 7.044 0 0 0-6.997 7.114v33.842h6.398V85.398h9.746v14.828h6.457V66.384a6.692 6.692 0 0 0-2.145-5.02 6.818 6.818 0 0 0-4.96-2.093zM705.36 79h-9.745V66.803c0-.717.418-1.076 1.195-1.076h7.294q1.255 0 1.255 1.076V79zm31.752 14.77h-12.555v-34.5h-6.4v40.956h18.956c1.433 0 2.33-1.615 2.33-3.228 0-1.615-.89-3.23-2.323-3.23zm-98.187 0c-.774 0-1.193-.48-1.193-1.377v-25.47c0-.778.356-1.196 1.075-1.196h7.414q1.26 0 1.26 1.075v21.98l5.35 8.146a6.86 6.86 0 0 0 1.11-3.816V66.384a6.695 6.695 0 0 0-2.15-5.02 6.825 6.825 0 0 0-4.96-2.093h-8.49a6.695 6.695 0 0 0-5.022 2.16 6.96 6.96 0 0 0-1.973 4.96v26.73a6.85 6.85 0 0 0 6.996 7.118h6.455l-4.243-6.457h-1.613zm.49-4.57l8.905 13.548h6.428l-8.905-13.55M10.157 78.445v3.468c0 2.602 1.363 3.84 4.087 3.84H29.73a3.977 3.977 0 0 0 3.714-4.087v-19.82c0-2.6-1.363-3.838-4.087-3.838h-16.35A13.032 13.032 0 0 1 0 44.878V27.413a13.03 13.03 0 0 1 13.006-13.13h17.59a13.134 13.134 0 0 1 13.128 13.13v4.335h-10.28V28.28q0-3.716-4.087-3.716h-15.36c-2.602 0-3.84 1.364-3.84 3.963V44.01c0 2.602 1.363 3.84 4.087 3.84h16.35a13.134 13.134 0 0 1 13.13 13.13v21.8a13.136 13.136 0 0 1-13.13 13.13H13.007A13.032 13.032 0 0 1 0 82.78v-4.335c0-2.105 1.735-3.22 5.08-3.22 3.343 0 5.076 1.115 5.076 3.22zm94.758 17.465h-10.28V70.89c0-2.105-4.584-6.69-13.75-13.997l-2.725-2.23-6.813 9.413V95.91H61.19V14.407h10.157v33.567l23.288-33.567h9.91l-.125 3.097L84.6 46.24l2.48 1.86c11.89 9.288 17.835 15.606 17.835 19.074zm60.572 0h-10.28V65.315H131.92V95.91h-10.157V27.413a13.032 13.032 0 0 1 13.006-13.13h17.59a13.134 13.134 0 0 1 13.12 13.13zm-10.28-40.75V28.28q0-3.716-4.087-3.716h-15.112q-4.087 0-4.088 3.716v26.88zm71.47 40.75h-10.28V62.096a3.976 3.976 0 0 0-3.716-4.088h-19.57V95.91h-10.16V14.283h30.6a13.136 13.136 0 0 1 13.13 13.13v17.465a13.253 13.253 0 0 1-2.72 8.175 12.82 12.82 0 0 1 2.726 7.927zm-10.28-67.383c0-2.6-1.24-3.963-3.716-3.963h-19.57v23.288h19.2a4.467 4.467 0 0 0 4.09-4.46zm71.47 16.35a12.76 12.76 0 0 1-13.13 13.13H254.3V95.91h-10.157V14.283h30.595a13.136 13.136 0 0 1 13.13 13.13zm-10.28-16.35c0-2.6-1.24-3.963-3.716-3.963H254.3v23.288h19.2a4.467 4.467 0 0 0 4.087-4.46zM348.44 95.91h-12.882l-20.685-57.968V95.91h-10.157V14.283h12.014l21.43 60.075V14.283h10.28zm30.472 0h-10.157V14.283h10.157zm64.288 0h-12.882l-20.686-57.968V95.91h-10.157V14.283h12.014l21.43 60.075V14.283h10.28zm61.19-13.13a13.134 13.134 0 0 1-13.13 13.13h-17.59c-7.554 0-13.005-5.573-13.005-13.13V27.413a13.03 13.03 0 0 1 13.006-13.13h17.59a13.134 13.134 0 0 1 13.13 13.13v4.335h-10.28V28.28q0-3.716-4.08-3.716h-15.36c-2.6 0-3.84 1.364-3.84 3.963v52.767a4.466 4.466 0 0 0 4.09 4.46h15.115c2.724 0 4.087-1.24 4.087-3.84v-16.6h-7.31V55.16H504.4zM124.24 7.06A6.953 6.953 0 0 1 131.178 0a7.057 7.057 0 0 1 7.06 7.06 7.138 7.138 0 0 1-7.06 7.06 6.877 6.877 0 0 1-6.938-7.06zm24.773 0A6.952 6.952 0 0 1 155.95 0a7.057 7.057 0 0 1 7.06 7.06 7.138 7.138 0 0 1-7.06 7.06 6.876 6.876 0 0 1-6.937-7.06z"/></svg>